<?xml version="1.0" encoding="UTF-8" standalone="no"?>
<svg width="165px" height="26px" viewBox="0 0 165 26" version="1.1" xmlns="http://www.w3.org/2000/svg" xmlns:xlink="http://www.w3.org/1999/xlink" xmlns:sketch="http://www.bohemiancoding.com/sketch/ns">
    <!-- Generator: Sketch 3.0.3 (7892) - http://www.bohemiancoding.com/sketch -->
    <title>Slice 1</title>
    <desc>Created with Sketch.</desc>
    <defs>
        <path id="path-1" d="M0.20948,0.257 L164.7905,0.257 L164.7905,26.356 L0.20948,26.356 L0.20948,0.257"></path>
    </defs>
    <g id="Page-1" stroke="none" stroke-width="1" fill="none" fill-rule="evenodd" sketch:type="MSPage">
        <g id="Group-21" sketch:type="MSLayerGroup">
            <mask id="mask-2" sketch:name="Clip 11" fill="white">
                <use xlink:href="#path-1"></use>
            </mask>
            <g id="Clip-11"></g>
            <path d="M131.0649,5.607 L131.1828,0.877 C133.5277,0.464 135.9313,0.257 138.3956,0.257 C141.1147,0.257 143.0361,0.632 144.1592,1.38 C145.302,2.109 145.7643,3.508 145.5476,5.577 C145.4305,6.642 145.115,7.607 144.6025,8.474 C144.109,9.342 143.243,10.307 142.0013,11.371 L136.5319,16.07 C137.3805,15.776 138.3257,15.628 139.3696,15.628 L144.75,15.628 L144.0398,21.006 L128.3162,21.006 L128.7884,17.696 C128.9458,16.573 129.2902,15.726 129.8232,15.154 L134.6995,10.987 C135.0553,10.651 135.4583,10.287 135.9122,9.893 C136.3654,9.479 136.7008,9.174 136.9167,8.977 C137.1539,8.76 137.4102,8.523 137.6854,8.267 C137.9607,8.011 138.1591,7.814 138.2762,7.676 C138.4146,7.538 138.553,7.381 138.6899,7.204 C138.829,7.026 138.9271,6.878 138.9864,6.76 C139.0457,6.621 139.0952,6.475 139.1332,6.317 C139.2138,6.021 139.1537,5.824 138.9568,5.725 C138.7606,5.607 138.3751,5.548 137.8033,5.548 C135.2218,5.548 132.9765,5.567 131.0649,5.607" id="Fill-10" fill="#3DB39E" sketch:type="MSShapeGroup" mask="url(#mask-2)"></path>
            <path d="M164.7907,12.789 L164.317,16.277 L162.2769,16.869 L162.1894,16.869 L161.5979,21.007 L155.7757,21.007 L156.3361,16.869 L148.4443,16.869 C147.4398,16.869 146.7304,16.543 146.3168,15.893 C145.9236,15.243 145.9236,14.514 146.3168,13.706 L153.116,0.612 L159.1731,0.612 L153.3813,12.169 C153.243,12.385 153.1836,12.543 153.2034,12.642 C153.2232,12.741 153.341,12.789 153.5585,12.789 L156.898,12.789 L157.5786,7.765 L159.0263,4.631 L163.9033,4.631 L162.7506,12.789 L164.7907,12.789" id="Fill-12" fill="#3DB39E" sketch:type="MSShapeGroup" mask="url(#mask-2)"></path>
            <path d="M11.81324,12.314 C11.81324,12.226 11.84289,12.021 11.84289,11.932 C11.84289,10.081 10.57916,8.583 8.11176,8.583 C5.84967,8.583 4.02859,10.345 3.67577,12.314 L11.75469,12.314 L11.81324,12.314 Z M0.20925,14.605 C0.20925,9.964 3.70543,6.057 8.31782,6.057 C12.0193,6.057 14.60379,8.495 14.60379,12.314 C14.60379,13.077 14.42815,14.077 14.31029,14.518 L3.35262,14.518 C3.32296,14.605 3.32296,14.841 3.32296,14.987 C3.32296,16.633 4.73345,18.424 7.61296,18.424 C8.93448,18.424 10.43317,18.012 11.40188,17.219 L12.401,19.394 C11.04983,20.334 9.16944,20.951 7.37801,20.951 C3.00057,20.951 0.20925,18.483 0.20925,14.605 L0.20925,14.605 Z" id="Fill-13" fill="#FFFFFF" sketch:type="MSShapeGroup" mask="url(#mask-2)"></path>
            <path d="M25.12121,20.598 L22.59451,15.369 L17.74716,20.598 L14.16354,20.598 L20.97872,13.312 L17.63006,6.409 L20.97872,6.409 L23.27047,11.197 L27.70571,6.409 L31.29008,6.409 L24.82695,13.312 L28.46988,20.598 L25.12121,20.598 Z" id="Fill-14" fill="#FFFFFF" sketch:type="MSShapeGroup" mask="url(#mask-2)"></path>
            <path d="M30.14489,14.546 C30.14489,9.876 33.72851,6.056 38.31201,6.056 C41.07367,6.056 42.89475,7.173 43.86346,8.789 L41.54358,10.551 C40.89726,9.406 39.69284,8.789 38.31201,8.789 C35.25685,8.789 33.31791,11.433 33.31791,14.4 C33.31791,16.867 35.05079,18.219 37.22468,18.219 C38.57586,18.219 39.72174,17.573 40.48591,16.663 L42.16024,18.718 C41.04326,19.893 39.34003,20.951 36.93118,20.951 C32.8769,20.951 30.14489,18.453 30.14489,14.546" id="Fill-15" fill="#FFFFFF" sketch:type="MSShapeGroup" mask="url(#mask-2)"></path>
            <path d="M53.82254,20.598 L55.79038,11.667 C55.84969,11.432 55.90824,11.021 55.90824,10.786 C55.90824,9.347 54.76236,8.789 53.26443,8.789 C51.82506,8.789 50.44423,9.758 49.50365,10.698 L47.32976,20.598 L44.2457,20.598 L48.56383,1.004 L51.64865,1.004 L50.00321,8.319 C51.17798,7.202 52.79376,6.057 54.85056,6.057 C57.49436,6.057 59.228,7.379 59.228,9.611 C59.228,9.905 59.1398,10.522 59.0516,10.816 L56.90736,20.598 L53.82254,20.598 Z" id="Fill-16" fill="#FFFFFF" sketch:type="MSShapeGroup" mask="url(#mask-2)"></path>
            <path d="M64.66259,14.458 C64.66259,16.75 66.13162,18.219 68.15876,18.219 C69.68558,18.219 71.0375,17.309 71.8891,16.192 L73.0943,10.698 C72.4472,9.611 71.0961,8.789 69.36319,8.789 C66.57187,8.789 64.66259,11.521 64.66259,14.458 M73.5931,8.436 L74.0341,6.41 L77.1182,6.41 L73.9748,20.598 L70.89,20.598 L71.331,18.718 C70.1266,20.159 68.65756,20.952 66.86538,20.952 C63.66422,20.952 61.43102,18.807 61.43102,15.075 C61.43102,10.669 64.19268,6.057 68.89252,6.057 C70.9493,6.057 72.6533,6.967 73.5931,8.436" id="Fill-17" fill="#FFFFFF" sketch:type="MSShapeGroup" mask="url(#mask-2)"></path>
            <path d="M87.5761,20.598 L89.5447,11.697 C89.6033,11.403 89.6618,11.08 89.6618,10.786 C89.6618,9.347 88.516,8.789 87.0188,8.789 C85.5787,8.789 84.1986,9.729 83.258,10.698 L81.0545,20.598 L77.9704,20.598 L81.1138,6.409 L84.1986,6.409 L83.7576,8.319 C84.9323,7.202 86.5481,6.057 88.6049,6.057 C91.2487,6.057 92.9816,7.379 92.9816,9.611 C92.9816,9.875 92.8934,10.493 92.8052,10.816 L90.661,20.598 L87.5761,20.598 Z" id="Fill-18" fill="#FFFFFF" sketch:type="MSShapeGroup" mask="url(#mask-2)"></path>
            <path d="M105.643,15.927 L106.7889,10.786 C106.0841,9.552 104.5854,8.789 102.911,8.789 C100.2087,8.789 98.4165,11.345 98.4165,14.223 C98.4165,16.426 99.827,17.837 101.9416,17.837 C103.3513,17.837 104.7618,16.985 105.643,15.927 M93.8338,23.919 L95.6845,21.862 C96.6251,23.183 98.4454,23.83 100.414,23.83 C102.324,23.83 104.0858,22.919 104.7618,19.864 L105.1146,18.306 C104.0273,19.687 102.4115,20.569 100.5607,20.569 C97.682,20.569 95.1849,18.835 95.1849,14.782 C95.1849,10.375 97.9755,6.057 102.5582,6.057 C104.3801,6.057 106.2605,6.997 107.3174,8.436 L107.7873,6.409 L110.8721,6.409 L107.8762,19.864 C106.7304,24.946 103.5285,26.356 100.4725,26.356 C97.7405,26.356 95.4792,25.739 93.8338,23.919" id="Fill-19" fill="#FFFFFF" sketch:type="MSShapeGroup" mask="url(#mask-2)"></path>
            <path d="M123.8867,12.314 C123.8867,12.226 123.9156,12.021 123.9156,11.932 C123.9156,10.081 122.6526,8.583 120.1852,8.583 C117.9231,8.583 116.1021,10.345 115.7492,12.314 L123.8282,12.314 L123.8867,12.314 Z M112.2827,14.605 C112.2827,9.964 115.7781,6.057 120.3905,6.057 C124.0928,6.057 126.6773,9.255 126.6773,13.074 C126.6773,13.838 126.5009,14.077 126.3838,14.518 L115.4261,14.518 C115.3964,14.605 115.3964,14.841 115.3964,14.987 C115.3964,16.633 116.8062,18.424 119.6857,18.424 C121.008,18.424 122.5059,18.012 123.4754,17.219 L124.4737,19.394 C123.1225,20.334 121.2422,20.951 119.4507,20.951 C115.0733,20.951 112.2827,18.483 112.2827,14.605 L112.2827,14.605 Z" id="Fill-20" fill="#FFFFFF" sketch:type="MSShapeGroup" mask="url(#mask-2)"></path>
        </g>
    </g>
</svg>