<?xml version="1.0" encoding="UTF-8" standalone="no"?>
<svg width="14px" height="14px" viewBox="0 0 14 14" version="1.1" xmlns="http://www.w3.org/2000/svg" xmlns:xlink="http://www.w3.org/1999/xlink" xmlns:sketch="http://www.bohemiancoding.com/sketch/ns">
    <!-- Generator: Sketch 3.0.3 (7892) - http://www.bohemiancoding.com/sketch -->
    <title>add</title>
    <desc>Created with Sketch.</desc>
    <defs></defs>
    <g id="Page-1" stroke="none" stroke-width="1" fill="none" fill-rule="evenodd" sketch:type="MSPage">
        <path d="M7.9168,10.2664 L6.0632,10.2664 L6.0632,7.9068 L3.7028,7.9068 L3.7028,6.0531 L6.0632,6.0531 L6.0632,3.6931 L7.9168,3.6931 L7.9168,6.0529 L10.2758,6.0529 L10.2758,7.9065 L7.9168,7.9065 L7.9168,10.2664 Z M6.9784,1.8841 C4.1648,1.8841 1.8841,4.1649 1.8841,6.9783 C1.8841,9.7918 4.1648,12.0725 6.9784,12.0725 C9.7921,12.0725 12.0729,9.7918 12.0729,6.9783 C12.0729,4.1647 9.7919,1.8841 6.9784,1.8841 L6.9784,1.8841 Z M6.9784,13.9568 C3.1241,13.9568 0,10.8327 0,6.9785 C0,3.1241 3.1241,0 6.9784,0 C10.8322,0 13.9569,3.1241 13.9569,6.9785 C13.9569,10.8327 10.8322,13.9568 6.9784,13.9568 L6.9784,13.9568 Z" id="Fill-132" fill="#FFFFFF" sketch:type="MSShapeGroup"></path>
    </g>
</svg>