<?xml version="1.0" encoding="UTF-8" standalone="no"?>
<svg width="10px" height="14px" viewBox="0 0 10 14" version="1.1" xmlns="http://www.w3.org/2000/svg" xmlns:xlink="http://www.w3.org/1999/xlink" xmlns:sketch="http://www.bohemiancoding.com/sketch/ns">
    <!-- Generator: Sketch 3.0.3 (7892) - http://www.bohemiancoding.com/sketch -->
    <title>Slice 1</title>
    <desc>Created with Sketch.</desc>
    <defs></defs>
    <g id="Page-1" stroke="none" stroke-width="1" fill="none" fill-rule="evenodd" sketch:type="MSPage">
        <path d="M3.8236,5.993 C3.8433,5.995 3.8593,5.999 3.8751,5.999 C4.2442,5.994 4.6138,5.999 4.9821,5.98 C5.3715,5.959 5.7549,5.891 6.1111,5.72 C6.4919,5.537 6.7325,5.25 6.7541,4.812 C6.776,4.368 6.6043,4.025 6.2149,3.798 C5.961,3.65 5.6815,3.581 5.3949,3.537 C4.8844,3.458 4.3704,3.481 3.857,3.492 C3.8466,3.492 3.8362,3.497 3.8236,3.5 L3.8236,5.993 Z M3.8225,7.251 L3.8225,10.019 C3.8389,10.022 3.8521,10.027 3.8654,10.027 C4.4903,10.038 5.1153,10.046 5.7352,9.948 C6.1014,9.89 6.4559,9.796 6.7817,9.607 C7.5478,9.164 7.4871,8.117 6.8565,7.701 C6.6207,7.546 6.3636,7.448 6.0917,7.385 C5.5575,7.261 5.0139,7.247 4.4689,7.251 C4.2559,7.253 4.0427,7.251 3.8225,7.251 L3.8225,7.251 Z M6.049,2.051 C6.2648,2.079 6.4715,2.103 6.6767,2.135 C7.0618,2.196 7.4383,2.289 7.7972,2.446 C8.7696,2.871 9.1481,3.614 9.1111,4.608 C9.0909,5.151 8.9036,5.623 8.4848,5.984 C8.3699,6.083 8.2367,6.161 8.1114,6.247 C8.0895,6.263 8.0653,6.274 8.0358,6.291 C8.1891,6.341 8.3332,6.383 8.4733,6.435 C9.3193,6.749 9.7706,7.362 9.833,8.26 C9.8621,8.678 9.8267,9.092 9.7158,9.498 C9.5163,10.228 9.0629,10.74 8.3787,11.055 C7.9042,11.273 7.401,11.383 6.8868,11.448 C6.6309,11.481 6.3729,11.498 6.1159,11.522 C6.097,11.524 6.0783,11.528 6.0499,11.533 L6.0499,13.602 L4.7922,13.602 L4.7922,11.555 L3.791,11.555 L3.791,13.602 L2.5327,13.602 L2.5327,11.516 L1.2653,11.516 L0,11.516 C0.0314,11.324 0.0605,11.144 0.0904,10.963 C0.1387,10.673 0.1894,10.383 0.2345,10.092 C0.2438,10.033 0.2643,10.015 0.3242,10.016 C0.5547,10.021 0.7853,10.02 1.0158,10.021 C1.0741,10.021 1.1325,10.02 1.1906,10.016 C1.4712,9.995 1.6356,9.818 1.6357,9.536 C1.636,8.544 1.6359,7.553 1.6358,6.561 C1.6357,5.736 1.6355,4.912 1.6353,4.087 C1.6352,3.676 1.3922,3.417 0.9807,3.405 C0.6921,3.396 0.4032,3.401 0.1145,3.4 L0.0077,3.4 L0.0077,2.061 L1.266,2.061 L2.5306,2.061 L2.5306,0.003 L3.7863,0.003 L3.7863,2.007 L4.7891,2.007 L4.7891,0 L6.049,0 L6.049,2.051 Z" id="Fill-190" fill="#FFFFFF" sketch:type="MSShapeGroup"></path>
    </g>
</svg>