<?xml version="1.0" encoding="UTF-8" standalone="no"?>
<svg width="25px" height="25px" viewBox="0 0 25 25" version="1.1" xmlns="http://www.w3.org/2000/svg" xmlns:xlink="http://www.w3.org/1999/xlink" xmlns:sketch="http://www.bohemiancoding.com/sketch/ns">
    <!-- Generator: Sketch 3.0.3 (7892) - http://www.bohemiancoding.com/sketch -->
    <title>Slice 1</title>
    <desc>Created with Sketch.</desc>
    <defs>
        <path id="path-1" d="M0,0 L25,0 L25,25 L0,25 L0,0"></path>
    </defs>
    <g id="Page-1" stroke="none" stroke-width="1" fill="none" fill-rule="evenodd" sketch:type="MSPage">
        <g id="Group-227" sketch:type="MSLayerGroup">
            <mask id="mask-2" sketch:name="Clip 226" fill="white">
                <use xlink:href="#path-1"></use>
            </mask>
            <g id="Clip-226"></g>
            <path d="M12.5,1.72 C6.583,1.72 1.75,6.5533 1.75,12.47 C1.75,18.3867 6.583,23.2199 12.5,23.2199 C18.417,23.2199 23.25,18.3867 23.25,12.47 C23.25,6.5533 18.417,1.72 12.5,1.72 M25,12.47 C25,19.3589 19.389,24.9701 12.5,24.9701 C5.611,24.9701 0,19.3589 0,12.47 C0,5.5811 5.611,-0.03 12.5,-0.03 C19.389,-0.03 25,5.5533 25,12.47 M16.667,9.1366 L13.333,12.47 L16.667,15.8034 C16.889,16.0256 16.889,16.4143 16.667,16.6367 C16.445,16.8589 16.055,16.8589 15.833,16.6367 L12.5,13.3034 L9.167,16.6367 C8.945,16.8589 8.555,16.8589 8.333,16.6367 C8.111,16.4143 8.111,16.0256 8.333,15.8034 L11.667,12.47 L8.333,9.1366 C8.111,8.9145 8.111,8.5256 8.333,8.3033 C8.555,8.0811 8.945,8.0811 9.167,8.3033 L12.5,11.6366 L15.833,8.3033 C16.055,8.0811 16.445,8.0811 16.667,8.3033 C16.889,8.5256 16.889,8.9145 16.667,9.1366" id="Fill-225" fill="#FFFFFF" sketch:type="MSShapeGroup" mask="url(#mask-2)"></path>
        </g>
    </g>
</svg>