<?xml version="1.0" encoding="UTF-8" standalone="no"?>
<svg width="20px" height="20px" viewBox="0 0 20 20" version="1.1" xmlns="http://www.w3.org/2000/svg" xmlns:xlink="http://www.w3.org/1999/xlink" xmlns:sketch="http://www.bohemiancoding.com/sketch/ns">
    <!-- Generator: Sketch 3.0.3 (7892) - http://www.bohemiancoding.com/sketch -->
    <title>Slice 1</title>
    <desc>Created with Sketch.</desc>
    <defs></defs>
    <g id="Page-1" stroke="none" stroke-width="1" fill="none" fill-rule="evenodd" sketch:type="MSPage">
        <g id="Group-150" sketch:type="MSLayerGroup" fill="#FFFFFF">
            <path d="M17.1818,17.5238 C17.1818,18.5642 16.3364,19.4109 15.2972,19.4109 L2.6328,19.4109 C1.5927,19.4109 0.7463,18.5642 0.7463,17.5238 L0.7463,4.8599 C0.7463,3.8203 1.5924,2.9749 2.6328,2.9749 L11.49,2.9749 L11.49,2.677 L2.6328,2.677 C1.4286,2.677 0.4484,3.6563 0.4484,4.8599 L0.4484,17.5238 C0.4484,18.7286 1.4283,19.7087 2.6328,19.7087 L15.2972,19.7087 C16.5005,19.7087 17.4798,18.7286 17.4798,17.5238 L17.4798,8.8472 L17.1818,8.8472 L17.1818,17.5238 Z" id="Fill-145" sketch:type="MSShapeGroup"></path>
            <path d="M15.2972,20 L2.6327,20 C1.2677,20 0.1571,18.8892 0.1571,17.5238 L0.1571,4.8599 C0.1571,3.4956 1.2677,2.3857 2.6327,2.3857 L11.7812,2.3857 L11.7812,3.2662 L2.6327,3.2662 C1.7531,3.2662 1.0376,3.9811 1.0376,4.8599 L1.0376,17.5238 C1.0376,18.4037 1.7531,19.1196 2.6327,19.1196 L15.2972,19.1196 C16.1758,19.1196 16.8906,18.4037 16.8906,17.5238 L16.8906,8.5559 L17.7711,8.5559 L17.7711,17.5238 C17.7711,18.8892 16.6613,20 15.2972,20" id="Fill-147" sketch:type="MSShapeGroup"></path>
            <path d="M19.0764,2.3364 L9.9712,12.5397 C9.669,12.8781 8.2723,13.4347 7.5175,13.7105 C7.9152,11.8758 8.0073,11.5898 8.4058,11.1424 L17.5115,0.9392 C17.7099,0.7166 17.995,0.5889 18.2936,0.5889 C18.551,0.5889 18.7983,0.6833 18.9909,0.8549 C19.4232,1.2407 19.4614,1.9054 19.0764,2.3364 M19.1896,0.6327 C18.9426,0.4124 18.6243,0.2913 18.2938,0.2913 C17.9104,0.2913 17.5444,0.4551 17.2895,0.7411 L8.1836,10.9439 C7.7202,11.4642 7.6247,11.8014 7.1698,13.9095 L7.1138,14.1687 L7.364,14.0817 C7.6059,13.9977 9.7399,13.2455 10.1935,12.7381 L19.2984,2.5348 C19.793,1.9813 19.7442,1.1281 19.1896,0.6327" id="Fill-148" sketch:type="MSShapeGroup"></path>
            <path d="M18.2936,0.8802 C18.0779,0.8802 17.8722,0.9723 17.7289,1.133 L8.6232,11.3363 C8.3128,11.6847 8.2123,11.9218 7.9169,13.2485 C8.869,12.8775 9.5953,12.5234 9.754,12.3457 L18.8592,2.1425 C18.9935,1.9921 19.061,1.7978 19.0494,1.5955 C19.0377,1.3929 18.948,1.2071 18.797,1.0723 C18.658,0.9485 18.4792,0.8802 18.2936,0.8802 L18.2936,0.8802 Z M6.7196,14.6141 L6.8851,13.848 C7.3366,11.7555 7.4383,11.3428 7.9661,10.7502 L17.0722,0.5471 C17.382,0.1995 17.8274,0 18.2938,0 C18.6961,0 19.0831,0.1475 19.3835,0.4153 C19.7098,0.7069 19.9032,1.1081 19.9282,1.5454 C19.9533,1.9828 19.8068,2.4031 19.5156,2.7289 L10.4108,12.9321 C9.9307,13.4693 8.0306,14.1584 7.4596,14.3569 L6.7196,14.6141 Z" id="Fill-149" sketch:type="MSShapeGroup"></path>
        </g>
    </g>
</svg>