<?xml version="1.0" encoding="UTF-8" standalone="no"?>
<svg width="20px" height="20px" viewBox="0 0 20 20" version="1.1" xmlns="http://www.w3.org/2000/svg" xmlns:xlink="http://www.w3.org/1999/xlink" xmlns:sketch="http://www.bohemiancoding.com/sketch/ns">
    <!-- Generator: Sketch 3.0.3 (7892) - http://www.bohemiancoding.com/sketch -->
    <title>Slice 1</title>
    <desc>Created with Sketch.</desc>
    <defs>
        <path id="path-1" d="M0,0 L20,0 L20,20 L0,20 L0,0 L0,0 Z"></path>
    </defs>
    <g id="Page-1" stroke="none" stroke-width="1" fill="none" fill-rule="evenodd" sketch:type="MSPage">
        <g id="Group-205" sketch:type="MSLayerGroup">
            <mask id="mask-2" sketch:name="Clip 204" fill="white">
                <use xlink:href="#path-1"></use>
            </mask>
            <g id="Clip-204"></g>
            <path d="M16.21,5.282 L16.21,1.532 L14.96,1.532 L14.96,5.282 L11.21,5.282 L11.21,6.532 L14.96,6.532 L14.96,10.282 L16.21,10.282 L16.21,6.532 L19.96,6.532 L19.96,5.282 L16.21,5.282 Z M5.835,8.637 C4.488,8.596 3.206,7.129 2.973,5.358 C2.741,3.587 3.644,2.232 4.992,2.273 C6.341,2.313 7.622,3.734 7.855,5.504 C8.087,7.275 7.183,8.677 5.835,8.637 L5.835,8.637 Z M9.051,14.334 C9.092,14.508 9.115,14.689 9.115,14.873 C9.115,16.4 8.131,17.594 5.308,17.594 C3.299,17.594 1.848,16.322 1.848,14.795 C1.848,13.298 3.648,12.052 5.656,12.074 C6.125,12.079 6.562,12.154 6.958,12.282 C8.048,13.041 8.831,13.47 9.051,14.334 L9.051,14.334 Z M10.879,1.532 L5.646,1.532 C3.3,1.532 1.092,3.309 1.092,5.368 C1.092,7.472 2.691,9.17 5.078,9.17 C5.244,9.17 5.406,9.167 5.563,9.155 C5.408,9.452 5.298,9.785 5.298,10.132 C5.298,10.717 5.612,11.191 6.01,11.578 C5.71,11.578 5.419,11.587 5.103,11.587 C2.197,11.587 -0.04,13.438 -0.04,15.357 C-0.04,17.247 2.412,18.43 5.318,18.43 C8.631,18.43 10.46,16.55 10.46,14.66 C10.46,13.144 10.013,12.237 8.631,11.258 C8.158,10.924 7.253,10.109 7.253,9.631 C7.253,9.071 7.413,8.794 8.257,8.134 C9.123,7.458 9.735,6.507 9.735,5.402 C9.735,4.085 9.149,2.802 8.048,2.379 L9.709,2.379 L10.879,1.532 Z" id="Fill-203" fill="#FFFFFF" sketch:type="MSShapeGroup" mask="url(#mask-2)"></path>
        </g>
    </g>
</svg>