<?xml version="1.0" encoding="UTF-8" standalone="no"?>
<svg width="15px" height="15px" viewBox="0 0 15 15" version="1.1" xmlns="http://www.w3.org/2000/svg" xmlns:xlink="http://www.w3.org/1999/xlink" xmlns:sketch="http://www.bohemiancoding.com/sketch/ns">
    <!-- Generator: Sketch 3.0.3 (7892) - http://www.bohemiancoding.com/sketch -->
    <title>Slice 1</title>
    <desc>Created with Sketch.</desc>
    <defs>
        <path id="path-1" d="M0,0 L15,0 L15,15 L0,15 L0,0"></path>
    </defs>
    <g id="Page-1" stroke="none" stroke-width="1" fill="none" fill-rule="evenodd" sketch:type="MSPage">
        <g id="Group-469" sketch:type="MSLayerGroup">
            <mask id="mask-2" sketch:name="Clip 466" fill="white">
                <use xlink:href="#path-1"></use>
            </mask>
            <g id="Clip-466"></g>
            <path d="M7.5,13.272 C4.344,13.272 1.785,10.688 1.788,7.496 C1.785,4.311 4.344,1.727 7.5,1.728 C10.657,1.727 13.216,4.311 13.22,7.497 C13.216,10.688 10.657,13.272 7.5,13.272 M7.5,1.0078718e-16 C3.398,-0.003 0.073,3.356 0.069,7.497 C0.073,11.643 3.398,15.001 7.5,15 C11.603,15.002 14.928,11.643 14.931,7.497 C14.928,3.356 11.603,-0.003 7.5,1.0078718e-16" id="Fill-465" fill="#485878" sketch:type="MSShapeGroup" mask="url(#mask-2)"></path>
            <path d="M6.874,9.652 L8.235,9.646 L8.235,8.594 C8.232,8.309 8.365,8.038 8.721,7.805 C9.078,7.57 10.074,7.096 10.075,5.846 C10.074,4.601 9.028,3.743 8.149,3.558 C7.271,3.379 6.318,3.499 5.644,4.242 C5.038,4.902 4.91,5.426 4.908,6.583 L6.269,6.583 L6.269,6.313 C6.267,5.697 6.337,5.047 7.216,4.867 C7.699,4.772 8.15,4.923 8.418,5.182 C8.722,5.483 8.725,6.157 8.235,6.491 L7.471,7.01 C7.027,7.298 6.875,7.616 6.874,8.082 L6.874,9.652 L6.874,9.652 Z" id="Fill-467" fill="#485878" sketch:type="MSShapeGroup" mask="url(#mask-2)"></path>
            <path d="M6.867,10.185 L8.241,10.185 L8.241,11.579 L6.867,11.579 L6.867,10.185 Z" id="Fill-468" fill="#485878" sketch:type="MSShapeGroup" mask="url(#mask-2)"></path>
        </g>
    </g>
</svg>