<?xml version="1.0" encoding="UTF-8" standalone="no"?>
<svg width="20px" height="15px" viewBox="0 0 20 15" version="1.1" xmlns="http://www.w3.org/2000/svg" xmlns:xlink="http://www.w3.org/1999/xlink" xmlns:sketch="http://www.bohemiancoding.com/sketch/ns">
    <!-- Generator: Sketch 3.0.3 (7892) - http://www.bohemiancoding.com/sketch -->
    <title>Slice 1</title>
    <desc>Created with Sketch.</desc>
    <defs></defs>
    <g id="Page-1" stroke="none" stroke-width="1" fill="none" fill-rule="evenodd" sketch:type="MSPage">
        <path d="M7.5,10 L8.75,10 L8.75,12.5 L7.5,12.5 L7.5,10 Z M5,10 L6.25,10 L6.25,12.5 L5,12.5 L5,10 Z M2.5,10 L3.75,10 L3.75,12.5 L2.5,12.5 L2.5,10 Z M18.125,13.75 L1.875,13.75 C1.53624,13.75 1.25,13.4638 1.25,13.125 L1.25,7.5 L18.75,7.5 L18.75,13.125 C18.75,13.4638 18.46376,13.75 18.125,13.75 L18.125,13.75 Z M1.875,1.25 L18.125,1.25 C18.46376,1.25 18.75,1.5362 18.75,1.875 L18.75,3.75 L1.25,3.75 L1.25,1.875 C1.25,1.5362 1.53624,1.25 1.875,1.25 L1.875,1.25 Z M18.125,0 L1.875,0 C0.84352,0 0,0.8438 0,1.875 L0,13.125 C0,14.1565 0.84352,15 1.875,15 L18.125,15 C19.15648,15 20,14.1565 20,13.125 L20,1.875 C20,0.8438 19.15648,0 18.125,0 L18.125,0 Z" id="Fill-59" fill-opacity="0.75" fill="#FFFFFF" sketch:type="MSShapeGroup"></path>
    </g>
</svg>