<?xml version="1.0" encoding="UTF-8" standalone="no"?>
<svg width="20px" height="20px" viewBox="0 0 20 20" version="1.1" xmlns="http://www.w3.org/2000/svg" xmlns:xlink="http://www.w3.org/1999/xlink" xmlns:sketch="http://www.bohemiancoding.com/sketch/ns">
    <!-- Generator: Sketch 3.0.3 (7892) - http://www.bohemiancoding.com/sketch -->
    <title>Slice 1</title>
    <desc>Created with Sketch.</desc>
    <defs>
        <path id="path-1" d="M0.00039,0 L19.99959,0 L19.99959,20 L0.00039,20 L0.00039,0"></path>
    </defs>
    <g id="Page-1" stroke="none" stroke-width="1" fill="none" fill-rule="evenodd" sketch:type="MSPage">
        <g id="Group-32" sketch:type="MSLayerGroup">
            <mask id="mask-2" sketch:name="Clip 23" fill="white">
                <use xlink:href="#path-1"></use>
            </mask>
            <g id="Clip-23"></g>
            <path d="M8.00019,0 L12.00019,0 C12.36779,0 12.66739,0.2984 12.66739,0.6662 L12.66739,4.6664 C12.66739,5.034 12.36779,5.3326 12.00019,5.3326 L8.00019,5.3326 C7.63179,5.3326 7.33359,5.0342 7.33359,4.6664 L7.33359,0.6662 C7.33359,0.2984 7.63159,0 8.00019,0" id="Fill-22" fill-opacity="0.75" fill="#FFFFFF" sketch:type="MSShapeGroup" mask="url(#mask-2)"></path>
            <path d="M15.33321,0 L19.33401,0 C19.70161,0 19.99961,0.2984 19.99961,0.6662 L19.99961,4.6664 C19.99961,5.034 19.70161,5.3326 19.33401,5.3326 L15.33321,5.3326 C14.96561,5.3326 14.66601,5.0342 14.66601,4.6664 L14.66601,0.6662 C14.66601,0.2984 14.96561,0 15.33321,0" id="Fill-24" fill-opacity="0.75" fill="#FFFFFF" sketch:type="MSShapeGroup" mask="url(#mask-2)"></path>
            <path d="M0.66757,0 L4.66677,0 C5.03517,0 5.33397,0.2984 5.33397,0.6662 L5.33397,4.6664 C5.33397,5.034 5.03517,5.3326 4.66677,5.3326 L0.66757,5.3326 C0.29837,5.3326 0.00037,5.034 0.00037,4.6664 L0.00037,0.6662 C0.00037,0.2984 0.29837,0 0.66757,0" id="Fill-25" fill-opacity="0.75" fill="#FFFFFF" sketch:type="MSShapeGroup" mask="url(#mask-2)"></path>
            <path d="M8.00019,7.3324 L12.00019,7.3324 C12.36779,7.3324 12.66739,7.6306 12.66739,7.9992 L12.66739,11.9992 C12.66739,12.3672 12.36779,12.6654 12.00019,12.6654 L8.00019,12.6654 C7.63179,12.6654 7.33359,12.3672 7.33359,11.9992 L7.33359,7.9992 C7.33359,7.6306 7.63159,7.3324 8.00019,7.3324" id="Fill-26" fill-opacity="0.75" fill="#FFFFFF" sketch:type="MSShapeGroup" mask="url(#mask-2)"></path>
            <path d="M15.33321,7.3324 L19.33401,7.3324 C19.70161,7.3324 19.99961,7.6306 19.99961,7.9992 L19.99961,11.9992 C19.99961,12.3672 19.70161,12.6654 19.33401,12.6654 L15.33321,12.6654 C14.96561,12.6654 14.66601,12.3672 14.66601,11.9992 L14.66601,7.9992 C14.66601,7.6306 14.96561,7.3324 15.33321,7.3324" id="Fill-27" fill-opacity="0.75" fill="#FFFFFF" sketch:type="MSShapeGroup" mask="url(#mask-2)"></path>
            <path d="M0.66757,7.3324 L4.66677,7.3324 C5.03517,7.3324 5.33397,7.6306 5.33397,7.9992 L5.33397,11.9992 C5.33397,12.3672 5.03517,12.6654 4.66677,12.6654 L0.66757,12.6654 C0.29837,12.6654 0.00037,12.3672 0.00037,11.9992 L0.00037,7.9992 C0.00037,7.6306 0.29837,7.3324 0.66757,7.3324" id="Fill-28" fill-opacity="0.75" fill="#FFFFFF" sketch:type="MSShapeGroup" mask="url(#mask-2)"></path>
            <path d="M8.00019,14.6664 L12.00019,14.6664 C12.36779,14.6664 12.66739,14.9644 12.66739,15.3322 L12.66739,19.3328 C12.66739,19.7012 12.36779,20 12.00019,20 L8.00019,20 C7.63179,20 7.33359,19.7012 7.33359,19.3328 L7.33359,15.3322 C7.33359,14.9644 7.63159,14.6664 8.00019,14.6664" id="Fill-29" fill-opacity="0.75" fill="#FFFFFF" sketch:type="MSShapeGroup" mask="url(#mask-2)"></path>
            <path d="M15.33321,14.6664 L19.33401,14.6664 C19.70161,14.6664 19.99961,14.9644 19.99961,15.3322 L19.99961,19.3328 C19.99961,19.7012 19.70161,20 19.33401,20 L15.33321,20 C14.96561,20 14.66601,19.7012 14.66601,19.3328 L14.66601,15.3322 C14.66601,14.9644 14.96561,14.6664 15.33321,14.6664" id="Fill-30" fill-opacity="0.75" fill="#FFFFFF" sketch:type="MSShapeGroup" mask="url(#mask-2)"></path>
            <path d="M0.66757,14.6664 L4.66677,14.6664 C5.03517,14.6664 5.33397,14.9644 5.33397,15.3322 L5.33397,19.3328 C5.33397,19.7012 5.03517,20 4.66677,20 L0.66757,20 C0.29837,20 0.00037,19.7012 0.00037,19.3328 L0.00037,15.3322 C0.00037,14.9644 0.29837,14.6664 0.66757,14.6664" id="Fill-31" fill-opacity="0.75" fill="#FFFFFF" sketch:type="MSShapeGroup" mask="url(#mask-2)"></path>
        </g>
    </g>
</svg>