<?xml version="1.0" encoding="UTF-8" standalone="no"?>
<svg width="22px" height="21px" viewBox="0 0 22 21" version="1.1" xmlns="http://www.w3.org/2000/svg" xmlns:xlink="http://www.w3.org/1999/xlink" xmlns:sketch="http://www.bohemiancoding.com/sketch/ns">
    <!-- Generator: Sketch 3.0.3 (7892) - http://www.bohemiancoding.com/sketch -->
    <title>Slice 1</title>
    <desc>Created with Sketch.</desc>
    <defs></defs>
    <g id="Page-1" stroke="none" stroke-width="1" fill="none" fill-rule="evenodd" sketch:type="MSPage">
        <g id="Group-55" sketch:type="MSLayerGroup" transform="translate(2.000000, 2.000000)" fill-opacity="0.75" fill="#FFFFFF">
            <path d="M1.65634,9.5736 L3.58974,7.2538 L-0.27566,7.2538 L1.65634,9.5736 Z M9.38594,9.0706 L13.41454,11.4448 L13.80654,10.7778 L10.15914,8.6102 L10.15914,3.4148 L9.38594,3.4148 L9.38594,9.0706 Z M1.41034,7.2538 C2.13734,3.2972 5.60474,0.2992 9.77374,0.2992 C14.46834,0.2992 18.27554,4.1058 18.27554,8.8 C18.27554,13.4936 14.46834,17.2992 9.77374,17.2992 C6.28434,17.2992 3.28594,15.2 1.97374,12.193 L2.59534,11.6736 C3.73534,14.518 6.51894,16.5278 9.77374,16.5278 C14.04254,16.5278 17.50194,13.0694 17.50194,8.8 C17.50194,4.5326 14.04254,1.0728 9.77374,1.0728 C6.03274,1.0728 2.91374,3.7274 2.19694,7.2538 L1.41034,7.2538 Z" id="Fill-52" sketch:type="MSShapeGroup"></path>
        </g>
    </g>
</svg>