<?xml version="1.0" encoding="UTF-8" standalone="no"?>
<svg width="20px" height="20px" viewBox="0 0 20 20" version="1.1" xmlns="http://www.w3.org/2000/svg" xmlns:xlink="http://www.w3.org/1999/xlink" xmlns:sketch="http://www.bohemiancoding.com/sketch/ns">
    <!-- Generator: Sketch 3.0.3 (7892) - http://www.bohemiancoding.com/sketch -->
    <title>Slice 1</title>
    <desc>Created with Sketch.</desc>
    <defs>
        <path id="path-1" d="M0,0 L20,0 L20,20 L0,20 L0,0"></path>
    </defs>
    <g id="Page-1" stroke="none" stroke-width="1" fill="none" fill-rule="evenodd" sketch:type="MSPage">
        <g id="Group-186" sketch:type="MSLayerGroup">
            <mask id="mask-2" sketch:name="Clip 183" fill="white">
                <use xlink:href="#path-1"></use>
            </mask>
            <g id="Clip-183"></g>
            <path d="M10.0175,-0.0163 C4.4947,-0.0163 0.0175,4.4609 0.0175,9.9837 C0.0175,15.5065 4.4947,19.9838 10.0175,19.9838 C15.5403,19.9838 20.0175,15.5065 20.0175,9.9837 C20.0175,4.4609 15.5403,-0.0163 10.0175,-0.0163 M10.0175,1.7837 C12.2078,1.7837 14.267,2.6367 15.8158,4.1854 C17.3646,5.7342 18.2175,7.7934 18.2175,9.9837 C18.2175,12.174 17.3645,14.2332 15.8158,15.782 C14.267,17.3308 12.2078,18.1838 10.0175,18.1838 C7.8272,18.1838 5.768,17.3308 4.2192,15.782 C2.6704,14.2332 1.8175,12.174 1.8175,9.9837 C1.8175,7.7934 2.6704,5.7342 4.2192,4.1854 C5.768,2.6367 7.8272,1.7837 10.0175,1.7837" id="Fill-182" fill="#FFFFFF" sketch:type="MSShapeGroup" mask="url(#mask-2)"></path>
            <path d="M10.0945,13.2332 C10.3898,12.4937 12.8615,8.766 11.1537,7.7399 C10.2001,7.167 8.8727,7.5363 7.8575,8.2121 L7.7887,8.8555 C8.3881,8.6518 9.0023,8.6518 9.1865,9.1367 C9.635,10.3166 8.0999,12.382 7.6801,13.4637 C6.5417,16.398 9.2746,16.7372 11.2243,15.5278 L11.2988,14.8316 C10.2381,15.12 9.4813,14.7662 10.0945,13.2332" id="Fill-184" fill="#FFFFFF" sketch:type="MSShapeGroup" mask="url(#mask-2)"></path>
            <path d="M11.2187,3.7837 C11.9749,3.7837 12.5881,4.3967 12.5881,5.153 C12.5881,5.9091 11.9749,6.5222 11.2187,6.5222 C10.4626,6.5222 9.8495,5.9091 9.8495,5.153 C9.8495,4.3967 10.4626,3.7837 11.2187,3.7837" id="Fill-185" fill="#FFFFFF" sketch:type="MSShapeGroup" mask="url(#mask-2)"></path>
        </g>
    </g>
</svg>