<?xml version="1.0" encoding="UTF-8" standalone="no"?>
<svg width="15px" height="15px" viewBox="0 0 15 15" version="1.1" xmlns="http://www.w3.org/2000/svg" xmlns:xlink="http://www.w3.org/1999/xlink" xmlns:sketch="http://www.bohemiancoding.com/sketch/ns">
    <!-- Generator: Sketch 3.0.3 (7892) - http://www.bohemiancoding.com/sketch -->
    <title>Slice 1</title>
    <desc>Created with Sketch.</desc>
    <defs></defs>
    <g id="Page-1" stroke="none" stroke-width="1" fill="none" fill-rule="evenodd" sketch:type="MSPage">
        <path d="M6.019125,10.761225 L5.075625,11.705225 C4.344725,12.435725 3.154925,12.435725 2.423925,11.705225 C1.692825,10.973625 1.692825,9.784325 2.423925,9.052925 L5.075625,6.401625 C5.807225,5.670125 6.996125,5.670125 7.727025,6.401625 C7.955525,6.629925 8.104325,6.905525 8.190425,7.196225 C8.259825,7.156025 8.331425,7.123025 8.390025,7.064325 L9.622325,5.832525 C9.464925,5.564325 9.283625,5.306025 9.052925,5.075925 C7.588925,3.611525 5.213925,3.611525 3.749625,5.075925 L1.098225,7.727225 C-0.366075,9.192125 -0.366075,11.566025 1.098225,13.030925 C2.562725,14.494925 4.937025,14.494925 6.401525,13.030925 L8.411025,11.021225 C7.608125,11.139425 6.783725,11.058725 6.019125,10.761225 M13.030725,6.401525 L10.378425,9.052725 C8.914625,10.517625 6.539625,10.517625 5.075625,9.052725 C4.844925,8.823125 4.664625,8.564025 4.506225,8.296625 L5.738525,7.064325 C5.797125,7.005225 5.869425,6.971325 5.938625,6.931625 C6.023825,7.222725 6.172425,7.498325 6.401325,7.727025 C7.132425,8.458625 8.322225,8.457825 9.052725,7.727025 L11.704025,5.075825 C12.435525,4.344225 12.435525,3.155025 11.704025,2.423925 C10.973525,1.692825 9.784325,1.692825 9.052725,2.423925 L8.109825,3.367925 C7.344825,3.069825 6.520425,2.989725 5.717925,3.107525 L7.727025,1.098225 C9.191825,-0.366075 11.565825,-0.366075 13.030625,1.098225 C14.494625,2.562725 14.494625,4.937225 13.030725,6.401525" id="Fill-164" fill="#485878" sketch:type="MSShapeGroup"></path>
    </g>
</svg>