<?xml version="1.0" encoding="UTF-8" standalone="no"?>
<svg width="15px" height="15px" viewBox="0 0 15 15" version="1.1" xmlns="http://www.w3.org/2000/svg" xmlns:xlink="http://www.w3.org/1999/xlink" xmlns:sketch="http://www.bohemiancoding.com/sketch/ns">
    <!-- Generator: Sketch 3.0.3 (7892) - http://www.bohemiancoding.com/sketch -->
    <title>Slice 1</title>
    <desc>Created with Sketch.</desc>
    <defs>
        <path id="path-1" d="M0,0 L15,0 L15,15 L0,15 L0,0"></path>
    </defs>
    <g id="Page-1" stroke="none" stroke-width="1" fill="none" fill-rule="evenodd" sketch:type="MSPage">
        <g id="Group-475" sketch:type="MSLayerGroup">
            <mask id="mask-2" sketch:name="Clip 473" fill="white">
                <use xlink:href="#path-1"></use>
            </mask>
            <g id="Clip-473"></g>
            <path d="M7.509,14.995 C3.583,14.995 0.389,11.801 0.389,7.874 C0.389,5.912 1.21,4.018 2.643,2.676 C3.008,2.337 3.577,2.356 3.917,2.718 C4.257,3.081 4.238,3.651 3.875,3.992 C2.788,5.009 2.19,6.387 2.19,7.875 C2.19,10.808 4.576,13.193 7.509,13.193 C10.442,13.193 12.828,10.808 12.828,7.875 C12.828,6.421 12.252,5.063 11.206,4.051 C10.848,3.705 10.839,3.135 11.185,2.777 C11.53,2.421 12.1,2.409 12.459,2.756 C13.858,4.11 14.63,5.928 14.63,7.875 C14.629,11.801 11.435,14.995 7.509,14.995" id="Fill-472" fill="#485878" sketch:type="MSShapeGroup" mask="url(#mask-2)"></path>
            <path d="M7.509,7.7 C7.011,7.7 6.608,7.297 6.608,6.799 L6.608,0.896 C6.608,0.398 7.011,-0.005 7.509,-0.005 C8.007,-0.005 8.41,0.398 8.41,0.896 L8.41,6.799 C8.41,7.297 8.007,7.7 7.509,7.7" id="Fill-474" fill="#485878" sketch:type="MSShapeGroup" mask="url(#mask-2)"></path>
        </g>
    </g>
</svg>