<?xml version="1.0" encoding="UTF-8" standalone="no"?>
<svg width="16px" height="20px" viewBox="0 0 16 20" version="1.1" xmlns="http://www.w3.org/2000/svg" xmlns:xlink="http://www.w3.org/1999/xlink" xmlns:sketch="http://www.bohemiancoding.com/sketch/ns">
    <!-- Generator: Sketch 3.0.3 (7892) - http://www.bohemiancoding.com/sketch -->
    <title>Slice 1</title>
    <desc>Created with Sketch.</desc>
    <defs></defs>
    <g id="Page-1" stroke="none" stroke-width="1" fill="none" fill-rule="evenodd" sketch:type="MSPage">
        <path d="M4,8 L4,6 C4,3.7944 5.7944,2 8,2 C10.2054,2 12,3.7944 12,6 L12,8 L4,8 Z M8,16 C6.8954,16 6,15.1046 6,14 C6,12.8954 6.8954,12 8,12 C9.1042,12 10,12.8954 10,14 C10,15.1046 9.1042,16 8,16 L8,16 Z M14,8 L14,6 C14,2.6864 11.3136,0 8,0 C4.6862,0 2,2.6864 2,6 L2,8 L0,8 L0,20 L16,20 L16,8 L14,8 Z" id="Fill-287" fill="#FFFFFF" sketch:type="MSShapeGroup"></path>
    </g>
</svg>