<?xml version="1.0" encoding="UTF-8" standalone="no"?>
<svg width="20px" height="20px" viewBox="0 0 20 20" version="1.1" xmlns="http://www.w3.org/2000/svg" xmlns:xlink="http://www.w3.org/1999/xlink" xmlns:sketch="http://www.bohemiancoding.com/sketch/ns">
    <!-- Generator: Sketch 3.0.3 (7892) - http://www.bohemiancoding.com/sketch -->
    <title>Slice 1</title>
    <desc>Created with Sketch.</desc>
    <defs>
        <path id="path-1" d="M0,0 L20,0 L20,20 L0,20 L0,0 L0,0 Z"></path>
    </defs>
    <g id="Page-1" stroke="none" stroke-width="1" fill="none" fill-rule="evenodd" sketch:type="MSPage">
        <g id="Group-64" sketch:type="MSLayerGroup">
            <g id="Group-60" fill-opacity="0.75" fill="#FFFFFF" sketch:type="MSShapeGroup">
                <path d="M4.3156,11.3684 L11.8948,11.3684 L11.8948,12.6316 L4.3156,12.6316 L4.3156,11.3684 Z" id="Fill-56"></path>
                <path d="M4.3156,7.579 L11.8948,7.579 L11.8948,8.842 L4.3156,8.842 L4.3156,7.579 Z" id="Fill-58"></path>
                <path d="M4.3156,3.7896 L11.8948,3.7896 L11.8948,5.0526 L4.3156,5.0526 L4.3156,3.7896 Z" id="Fill-59"></path>
            </g>
            <g id="Group-63">
                <mask id="mask-2" sketch:name="Clip 62" fill="white">
                    <use xlink:href="#path-1"></use>
                </mask>
                <g id="Clip-62"></g>
                <path d="M17.78926,18.3156 C17.78926,18.5788 17.63146,18.7364 17.36846,18.7364 L6.63146,18.7364 C6.36846,18.7364 6.21046,18.579 6.21046,18.3156 L6.21046,17.2628 L14.42106,17.2628 C14.94766,17.2628 15.26326,16.9472 15.26326,16.4206 L15.26326,4.421 L17.36846,4.421 C17.63146,4.421 17.78926,4.5786 17.78926,4.8418 L17.78926,18.3156 Z M2.21046,15.579 L2.21046,1.684 C2.21046,1.4208 2.36846,1.2628 2.63146,1.2628 L13.57886,1.2628 C13.84226,1.2628 14.00006,1.4208 14.00006,1.684 L14.00006,15.579 C14.00006,15.8422 13.84226,16 13.57886,16 L2.63146,16 C2.36846,16 2.21046,15.8422 2.21046,15.579 L2.21046,15.579 Z M18.21046,2.9474 L15.26326,2.9474 L15.26326,0.8418 C15.26326,0.3156 14.94766,-0.0002 14.42106,-0.0002 L1.78926,-0.0002 C1.26286,-0.0002 0.94726,0.3156 0.94726,0.8418 L0.94726,16.4208 C0.94726,16.9476 1.26286,17.2634 1.78926,17.2634 L4.73666,17.2634 L4.73666,19.1582 C4.73666,19.6848 5.05246,20.0004 5.57886,20.0004 L18.21046,20.0004 C18.73706,20.0004 19.05266,19.6848 19.05266,19.1582 L19.05266,3.7896 C19.05266,3.2628 18.73706,2.9474 18.21046,2.9474 L18.21046,2.9474 Z" id="Fill-61" fill-opacity="0.75" fill="#FFFFFF" sketch:type="MSShapeGroup" mask="url(#mask-2)"></path>
            </g>
        </g>
    </g>
</svg>