<?xml version="1.0" encoding="UTF-8" standalone="no"?>
<svg width="20px" height="20px" viewBox="0 0 20 20" version="1.1" xmlns="http://www.w3.org/2000/svg" xmlns:xlink="http://www.w3.org/1999/xlink" xmlns:sketch="http://www.bohemiancoding.com/sketch/ns">
    <!-- Generator: Sketch 3.0.3 (7892) - http://www.bohemiancoding.com/sketch -->
    <title>Slice 1</title>
    <desc>Created with Sketch.</desc>
    <defs>
        <path id="path-1" d="M0,0 L20,0 L20,20 L0,20 L0,0"></path>
    </defs>
    <g id="Page-1" stroke="none" stroke-width="1" fill="none" fill-rule="evenodd" sketch:type="MSPage">
        <g id="Group-52" sketch:type="MSLayerGroup">
            <mask id="mask-2" sketch:name="Clip 49" fill="white">
                <use xlink:href="#path-1"></use>
            </mask>
            <g id="Clip-49"></g>
            <path d="M8.16667,16.4848 C9.04711,16.4848 9.76089,17.1986 9.76089,18.079 C9.76089,18.9599 9.04711,19.6735 8.16667,19.6735 C7.286,19.6735 6.57244,18.9599 6.57244,18.079 C6.57244,17.1986 7.286,16.4848 8.16667,16.4848" id="Fill-48" fill-opacity="0.75" fill="#FFFFFF" sketch:type="MSShapeGroup" mask="url(#mask-2)"></path>
            <path d="M17.17382,16.4848 C18.05427,16.4848 18.76827,17.1986 18.76827,18.079 C18.76827,18.9599 18.05427,19.6735 17.17382,19.6735 C16.29338,19.6735 15.5796,18.9599 15.5796,18.079 C15.5796,17.1986 16.29338,16.4848 17.17382,16.4848" id="Fill-50" fill-opacity="0.75" fill="#FFFFFF" sketch:type="MSShapeGroup" mask="url(#mask-2)"></path>
            <path d="M14.26953,11.1992 L14.56287,8.4601 L17.80176,8.4601 L17.40864,11.1992 L14.26953,11.1992 Z M7.11153,11.1992 L6.37287,8.4601 L9.2322,8.4601 L9.8482,11.1992 L7.11153,11.1992 Z M8.43531,4.9154 L9.0942,7.8463 L6.20753,7.8463 L5.36064,4.7048 L8.43531,4.9154 Z M13.68953,8.4601 L13.39642,11.1992 L10.73798,11.1992 L10.1222,8.4601 L13.68953,8.4601 Z M9.98353,7.8466 L9.33864,4.9779 L14.0282,5.2997 L13.75553,7.8466 L9.98353,7.8466 Z M17.88909,7.8466 L14.62842,7.8466 L14.89464,5.359 L18.21353,5.5868 L17.88909,7.8466 Z M4.93109,3.1128 L4.1802,0.3266 L3.34509,0.3266 L2.6722,0.3266 L0.85464,0.3266 C0.38242,0.3266 -2e-05,0.7319 -2e-05,1.2319 C-2e-05,1.7321 0.38242,2.1374 0.85464,2.1374 L2.79264,2.1374 L6.57242,16.1563 L6.57998,16.1548 L18.76798,16.1548 L18.76798,14.3437 L7.95931,14.3437 L7.53309,12.7623 L18.76798,12.7623 L18.76798,12.7341 L19.99998,4.1592 L4.93109,3.1128 Z" id="Fill-51" fill-opacity="0.75" fill="#FFFFFF" sketch:type="MSShapeGroup" mask="url(#mask-2)"></path>
        </g>
    </g>
</svg>