<?xml version="1.0" encoding="UTF-8" standalone="no"?>
<svg width="20px" height="20px" viewBox="0 0 20 20" version="1.1" xmlns="http://www.w3.org/2000/svg" xmlns:xlink="http://www.w3.org/1999/xlink" xmlns:sketch="http://www.bohemiancoding.com/sketch/ns">
    <!-- Generator: Sketch 3.0.3 (7892) - http://www.bohemiancoding.com/sketch -->
    <title>Slice 1</title>
    <desc>Created with Sketch.</desc>
    <defs></defs>
    <g id="Page-1" stroke="none" stroke-width="1" fill="none" fill-rule="evenodd" sketch:type="MSPage">
        <path d="M14.6666,12 C13.3334,13.3334 13.3334,14.6666 12,14.6666 C10.6666,14.6666 9.3333,13.3334 8,12 C6.6667,10.6666 5.3333,9.3333 5.3333,8 C5.3333,6.6667 6.6667,6.6667 8,5.3333 C9.3333,4 5.3333,0 4,0 C2.6667,0 0,4 0,4 C0,6.6667 2.7396,12.0729 5.3333,14.6666 C7.9271,17.2604 13.3334,20 16,20 C16,20 20,17.3334 20,16 C20,14.6666 16,10.6666 14.6666,12" id="Fill-235" fill="#FFFFFF" sketch:type="MSShapeGroup"></path>
    </g>
</svg>