<?xml version="1.0" encoding="UTF-8" standalone="no"?>
<svg width="26px" height="26px" viewBox="0 0 26 26" version="1.1" xmlns="http://www.w3.org/2000/svg" xmlns:xlink="http://www.w3.org/1999/xlink" xmlns:sketch="http://www.bohemiancoding.com/sketch/ns">
    <!-- Generator: Sketch 3.0.3 (7892) - http://www.bohemiancoding.com/sketch -->
    <title>Slice 1</title>
    <desc>Created with Sketch.</desc>
    <defs>
        <path id="path-1" d="M0,0 L26,0 L26,26 L0,26 L0,0 L0,0 Z"></path>
    </defs>
    <g id="Page-1" stroke="none" stroke-width="1" fill="none" fill-rule="evenodd" sketch:type="MSPage">
        <g id="Group-160" sketch:type="MSLayerGroup">
            <mask id="mask-2" sketch:name="Clip 159" fill="white">
                <use xlink:href="#path-1"></use>
            </mask>
            <g id="Clip-159"></g>
            <path d="M16.25,9.75 L26.0001,9.75 L26.0001,-0.0001 L16.25,-0.0001 L16.25,9.75 Z M17.875,1.625 L24.375,1.625 L24.375,8.125 L17.875,8.125 L17.875,1.625 Z M11.375,1.625 L13,1.625 L13,-0.0001 L11.375,-0.0001 L11.375,1.625 Z M0,9.75 L9.75,9.75 L9.75,-0.0001 L0,-0.0001 L0,9.75 Z M1.625,1.625 L8.125,1.625 L8.125,8.125 L1.625,8.125 L1.625,1.625 Z M13,3.25 L14.625,3.25 L14.625,1.625 L13,1.625 L13,3.25 Z M19.5,6.5 L22.75,6.5 L22.75,3.25 L19.5,3.25 L19.5,6.5 Z M11.375,4.875 L13,4.875 L13,3.25 L11.375,3.25 L11.375,4.875 Z M3.25,6.5 L6.5001,6.5 L6.5001,3.25 L3.25,3.25 L3.25,6.5 Z M13,6.5 L14.625,6.5 L14.625,4.875 L13,4.875 L13,6.5 Z M11.375,8.125 L13,8.125 L13,6.4999 L11.375,6.4999 L11.375,8.125 Z M13,9.75 L14.625,9.75 L14.625,8.125 L13,8.125 L13,9.75 Z M11.375,11.375 L13,11.375 L13,9.75 L11.375,9.75 L11.375,11.375 Z M22.75,11.375 L22.75,13 L21.125,13 L21.125,14.625 L22.75,14.625 L22.75,13 L24.375,13 L24.375,11.375 L22.75,11.375 Z M19.5,11.375 L19.5,13 L17.875,13 L17.875,14.625 L19.5,14.625 L19.5,13 L21.125,13 L21.125,11.375 L19.5,11.375 Z M16.25,11.375 L16.25,13 L14.625,13 L14.625,14.625 L13,14.625 L13,16.25 L14.625,16.25 L14.625,14.625 L16.25,14.625 L16.25,13 L17.875,13 L17.875,11.375 L16.25,11.375 Z M9.75,11.375 L9.75,13 L8.125,13 L8.125,14.625 L9.75,14.625 L9.75,13 L11.375,13 L11.375,11.375 L9.75,11.375 Z M6.5,13 L8.125,13 L8.125,11.375 L6.5,11.375 L6.5,13 Z M3.25,11.375 L3.25,13 L1.625,13 L1.625,14.625 L3.25,14.625 L3.25,13 L4.875,13 L4.875,11.375 L3.25,11.375 Z M0,13 L1.625,13 L1.625,11.375 L0,11.375 L0,13 Z M24.375,14.625 L26.0001,14.625 L26.0001,13 L24.375,13 L24.375,14.625 Z M11.375,14.625 L13,14.625 L13,13 L11.375,13 L11.375,14.625 Z M22.75,14.625 L22.75,16.25 L21.125,16.25 L21.125,17.875 L22.75,17.875 L22.75,16.25 L24.375,16.25 L24.375,14.625 L22.75,14.625 Z M16.25,14.625 L16.25,16.25 L14.625,16.25 L14.625,17.875 L13,17.875 L13,19.5 L14.625,19.5 L14.625,17.875 L16.25,17.875 L16.25,16.25 L17.875,16.25 L17.875,14.625 L16.25,14.625 Z M24.375,17.875 L26.0001,17.875 L26.0001,16.25 L24.375,16.25 L24.375,17.875 Z M17.875,17.875 L19.5001,17.875 L19.5001,16.25 L17.875,16.25 L17.875,17.875 Z M11.375,17.875 L13,17.875 L13,16.25 L11.375,16.25 L11.375,17.875 Z M0,26 L9.75,26 L9.75,16.25 L0,16.25 L0,26 Z M1.625,17.875 L8.125,17.875 L8.125,24.375 L1.625,24.375 L1.625,17.875 Z M22.75,17.875 L22.75,19.5 L21.125,19.5 L21.125,21.125 L22.75,21.125 L22.75,19.5 L24.375,19.5 L24.375,17.875 L22.75,17.875 Z M19.5,19.5 L21.125,19.5 L21.125,17.875 L19.5,17.875 L19.5,19.5 Z M16.25,17.875 L16.25,19.5 L14.625,19.5 L14.625,21.125 L13,21.125 L13,22.75 L14.625,22.75 L14.625,21.125 L16.25,21.125 L16.25,19.5 L17.875,19.5 L17.875,17.875 L16.25,17.875 Z M24.375,21.125 L26.0001,21.125 L26.0001,19.5 L24.375,19.5 L24.375,21.125 Z M11.375,21.125 L13,21.125 L13,19.5 L11.375,19.5 L11.375,21.125 Z M3.25,22.75 L6.5001,22.75 L6.5001,19.4999 L3.25,19.4999 L3.25,22.75 Z M19.5,21.125 L19.5,22.75 L17.875,22.75 L17.875,24.375 L19.5,24.375 L19.5,22.75 L21.125,22.75 L21.125,21.125 L19.5,21.125 Z M16.25,22.75 L17.875,22.75 L17.875,21.1249 L16.25,21.1249 L16.25,22.75 Z M24.375,24.375 L26.0001,24.375 L26.0001,22.75 L24.375,22.75 L24.375,24.375 Z M21.125,24.375 L22.75,24.375 L22.75,22.75 L21.125,22.75 L21.125,24.375 Z M11.375,24.375 L13,24.375 L13,22.75 L11.375,22.75 L11.375,24.375 Z M22.75,26 L24.375,26 L24.375,24.375 L22.75,24.375 L22.75,26 Z M19.5,26 L21.125,26 L21.125,24.375 L19.5,24.375 L19.5,26 Z M16.25,26 L17.875,26 L17.875,24.375 L16.25,24.375 L16.25,26 Z M13,26 L14.625,26 L14.625,24.375 L13,24.375 L13,26 Z" id="Fill-158" fill="#FFFFFF" sketch:type="MSShapeGroup" mask="url(#mask-2)"></path>
        </g>
    </g>
</svg>