<?xml version="1.0" encoding="UTF-8" standalone="no"?>
<svg width="15px" height="15px" viewBox="0 0 15 15" version="1.1" xmlns="http://www.w3.org/2000/svg" xmlns:xlink="http://www.w3.org/1999/xlink" xmlns:sketch="http://www.bohemiancoding.com/sketch/ns">
    <!-- Generator: Sketch 3.0.3 (7892) - http://www.bohemiancoding.com/sketch -->
    <title>Slice 1</title>
    <desc>Created with Sketch.</desc>
    <defs></defs>
    <g id="Page-1" stroke="none" stroke-width="1" fill="none" fill-rule="evenodd" sketch:type="MSPage">
        <path d="M7.485,10.312 C5.932,10.312 4.673,9.053 4.673,7.5 C4.673,5.947 5.932,4.688 7.485,4.688 C9.038,4.688 10.298,5.947 10.298,7.5 C10.298,9.053 9.038,10.312 7.485,10.312 L7.485,10.312 Z M15,8.423 L15,6.548 L12.759,5.614 C12.697,5.438 12.631,5.268 12.55,5.101 L13.455,2.849 L12.129,1.523 L9.897,2.442 C9.726,2.36 9.553,2.291 9.373,2.226 L8.423,0 L6.548,0 L5.621,2.219 C5.434,2.285 5.255,2.355 5.077,2.439 L2.849,1.544 L1.523,2.869 L2.432,5.078 C2.344,5.259 2.272,5.444 2.205,5.634 L0,6.577 L0,8.452 L2.206,9.372 C2.274,9.562 2.347,9.747 2.435,9.928 L1.544,12.151 L2.869,13.477 L5.083,12.565 C5.261,12.649 5.442,12.717 5.629,12.781 L6.577,15 L8.452,15 L9.381,12.77 C9.558,12.704 9.734,12.634 9.902,12.554 L12.151,13.455 L13.477,12.129 L12.554,9.891 C12.633,9.723 12.697,9.553 12.759,9.379 L15,8.423 Z" id="Fill-458" fill="#44AFA1" sketch:type="MSShapeGroup"></path>
    </g>
</svg>