<?xml version="1.0" encoding="UTF-8" standalone="no"?>
<svg width="20px" height="17px" viewBox="0 0 20 17" version="1.1" xmlns="http://www.w3.org/2000/svg" xmlns:xlink="http://www.w3.org/1999/xlink" xmlns:sketch="http://www.bohemiancoding.com/sketch/ns">
    <!-- Generator: Sketch 3.0.3 (7892) - http://www.bohemiancoding.com/sketch -->
    <title>Slice 1</title>
    <desc>Created with Sketch.</desc>
    <defs></defs>
    <g id="Page-1" stroke="none" stroke-width="1" fill="none" fill-rule="evenodd" sketch:type="MSPage">
        <path d="M20,1.924 C19.265,2.25 18.473,2.471 17.643,2.571 C18.49,2.062 19.141,1.258 19.448,0.301 C18.654,0.771 17.777,1.112 16.842,1.296 C16.093,0.498 15.027,0 13.847,0 C11.581,0 9.744,1.838 9.744,4.104 C9.744,4.425 9.781,4.738 9.85,5.038 C6.44,4.867 3.417,3.233 1.393,0.751 C1.04,1.357 0.837,2.062 0.837,2.814 C0.837,4.238 1.562,5.493 2.663,6.229 C1.99,6.208 1.358,6.024 0.804,5.717 L0.804,5.768 C0.804,7.757 2.218,9.414 4.095,9.792 C3.75,9.886 3.388,9.935 3.014,9.935 C2.75,9.935 2.493,9.91 2.242,9.862 C2.764,11.492 4.279,12.678 6.075,12.711 C4.67,13.812 2.901,14.468 0.979,14.468 C0.648,14.468 0.321,14.448 0,14.41 C1.816,15.574 3.973,16.254 6.29,16.254 C13.837,16.254 17.964,10.001 17.964,4.579 C17.964,4.401 17.96,4.224 17.952,4.048 C18.754,3.469 19.45,2.746 20,1.924" id="Fill-198" fill="#FFFFFF" sketch:type="MSShapeGroup"></path>
    </g>
</svg>