<?xml version="1.0" encoding="UTF-8" standalone="no"?>
<svg width="20px" height="15px" viewBox="0 0 20 15" version="1.1" xmlns="http://www.w3.org/2000/svg" xmlns:xlink="http://www.w3.org/1999/xlink" xmlns:sketch="http://www.bohemiancoding.com/sketch/ns">
    <!-- Generator: Sketch 3.0.3 (7892) - http://www.bohemiancoding.com/sketch -->
    <title>Slice 1</title>
    <desc>Created with Sketch.</desc>
    <defs></defs>
    <g id="Page-1" stroke="none" stroke-width="1" fill="none" fill-rule="evenodd" sketch:type="MSPage">
        <g id="Group-25" sketch:type="MSLayerGroup" fill-opacity="0.75" fill="#FFFFFF">
            <path d="M8.43398,9 L8.58198,9 C8.54198,8.966 8.50198,8.934 8.46598,8.896 C7.29398,7.838 6.39998,5.78 6.39998,4.116 C6.39998,1.764 8.32598,-0.144 10.14798,-0.144 C11.96798,-0.144 13.79798,1.89 13.79798,4.242 C13.79798,5.906 12.80998,7.9 11.58598,8.922 C11.83798,9.882 13.21398,10.196 16.05398,10.974 C19.20998,11.84 19.97178,14.044 19.96218,15.484 L0.07998,15.484 C0.06998,14.044 0.83398,11.84 3.98998,10.974 C6.75198,10.216 8.12798,9.898 8.43398,9" id="Fill-23" sketch:type="MSShapeGroup"></path>
            <path d="M8.58204,9 L8.43404,9 C8.44604,8.966 8.45604,8.932 8.46604,8.896 C8.50204,8.934 8.54204,8.966 8.58204,9" id="Fill-24" sketch:type="MSShapeGroup"></path>
        </g>
    </g>
</svg>