<?xml version="1.0" encoding="UTF-8" standalone="no"?>
<svg width="17px" height="19px" viewBox="0 0 17 19" version="1.1" xmlns="http://www.w3.org/2000/svg" xmlns:xlink="http://www.w3.org/1999/xlink" xmlns:sketch="http://www.bohemiancoding.com/sketch/ns">
    <!-- Generator: Sketch 3.0.3 (7892) - http://www.bohemiancoding.com/sketch -->
    <title>Slice 1</title>
    <desc>Created with Sketch.</desc>
    <defs></defs>
    <g id="Page-1" stroke="none" stroke-width="1" fill="none" fill-rule="evenodd" sketch:type="MSPage">
        <path d="M9.6082,6.16 L1.2318,0 C0.5516,0 0,0.551 0,1.232 L0,11.333 C0,11.877 0.3468,11.964 1.2318,12.565 L9.6082,18.724 C10.288,18.724 10.84,18.172 10.84,17.492 L10.84,7.391 C10.8262,6.943 9.6082,6.16 9.6082,6.16 L9.6082,6.16 Z M16.7506,1.232 C16.7506,0.552 16.1994,0 15.5192,0 L2.9094,0 L5.6884,2.094 L13.858,2.094 C14.1646,2.094 14.4126,2.343 14.4126,2.649 C14.4126,2.955 14.1646,3.203 13.858,3.203 L7.1602,3.203 L8.9592,4.558 L13.8578,4.558 C14.1642,4.558 14.4124,4.806 14.4124,5.112 C14.4124,5.418 14.1642,5.666 13.8578,5.666 L10.4302,5.666 L10.5938,5.79 C10.5938,5.79 11.825,6.495 11.825,7.022 L11.825,13.181 L15.5208,13.181 C16.2016,13.181 16.7528,12.629 16.7528,11.949 L16.7506,1.232 Z" id="Fill-20" fill="#525E6C" sketch:type="MSShapeGroup"></path>
    </g>
</svg>